<svg id="SvgjsSvg525859" width="7" height="11" xmlns="http://www.w3.org/2000/svg" version="1.1" xmlns:xlink="http://www.w3.org/1999/xlink" xmlns:svgjs="http://svgjs.com/svgjs" viewBox="0.201171875 0 6.59765625 10.99993896484375" fill="#ffffff" opacity="1"><defs id="SvgjsDefs525860"></defs><svg version="1.1" xmlns="http://www.w3.org/2000/svg" xmlns:xlink="http://www.w3.org/1999/xlink" width="7" height="11" viewBox="1.99656 1.9698 6.00357 10.0095"><g><path fill="#ffffff" stroke="none" paint-order="stroke fill markers" fill-rule="evenodd" d=" M 7.7841796875 7.470058917999268 C 7.7841796875 7.470058917999268 3.255523681640625 11.773940324783325 3.255523681640625 11.773940324783325 C 2.9674758911132812 12.047699451446533 2.5004425048828125 12.047699451446533 2.2125091552734375 11.773940324783325 C 1.9245758056640625 11.500181198120117 1.9245758056640625 11.056700229644775 2.2125091552734375 10.782720685005188 C 2.2125091552734375 10.782720685005188 6.21954345703125 6.974559307098389 6.21954345703125 6.974559307098389 C 6.21954345703125 6.974559307098389 2.2126235961914062 3.16617751121521 2.2126235961914062 3.16617751121521 C 1.9246902465820312 2.892418384552002 1.9246902465820312 2.4487169981002808 2.2126235961914062 2.1749578714370728 C 2.50067138671875 1.9014191627502441 2.96759033203125 1.9014191627502441 3.2556381225585938 2.1749578714370728 C 3.2556381225585938 2.1749578714370728 7.784294128417969 6.47883927822113 7.784294128417969 6.47883927822113 C 7.928260803222656 6.616159677505493 8.000129699707031 6.795359492301941 8.000129699707031 6.974559307098389 C 8.000129699707031 7.153759121894836 7.928031921386719 7.333179354667664 7.7841796875 7.470058917999268 Z"></path></g></svg></svg>