<svg width="24" height="14" xmlns="http://www.w3.org/2000/svg" xmlns:xlink="http://www.w3.org/1999/xlink" xmlns:svgjs="http://svgjs.com/svgjs" viewBox="0 0.217 24 13.566" fill="#ccc"><svg xmlns="http://www.w3.org/2000/svg" width="24" height="14" viewBox="2 1.999 23 13.001"><path paint-order="stroke fill markers" fill-rule="evenodd" d="M21.795 10.266c.763.744 1.568 1.444 2.253 2.263.302.364.588.74.807 1.162.31.6.03 1.26-.51 1.297l-3.35-.002c-.865.072-1.554-.276-2.134-.866-.464-.472-.893-.974-1.34-1.462a3.168 3.168 0 0 0-.602-.536c-.458-.296-.855-.205-1.116.271-.267.485-.327 1.022-.353 1.562-.036.788-.275.995-1.067 1.031-1.694.08-3.301-.176-4.795-1.03-1.316-.752-2.337-1.814-3.226-3.016-1.73-2.342-3.055-4.914-4.246-7.56-.268-.596-.072-.916.586-.927a91.44 91.44 0 0 1 3.28-.001c.445.006.74.26.91.68.592 1.452 1.316 2.834 2.224 4.115.242.341.489.682.84.922.389.266.684.178.867-.255.116-.273.167-.569.193-.862.087-1.01.098-2.019-.054-3.026-.093-.628-.447-1.034-1.075-1.154-.32-.06-.272-.179-.117-.362.269-.314.522-.51 1.027-.51h3.787c.596.117.729.384.81.984l.004 4.2c-.007.233.116.921.534 1.075.335.11.555-.158.756-.37.907-.962 1.554-2.097 2.132-3.273.257-.518.477-1.055.691-1.591.158-.399.407-.595.856-.586l3.645.003c.108 0 .217.002.322.02.614.104.782.368.593.967-.3.94-.88 1.723-1.45 2.51-.607.84-1.257 1.651-1.86 2.496-.554.772-.51 1.16.178 1.83z"/></svg></svg>