<svg width="16" height="16" xmlns="http://www.w3.org/2000/svg" xmlns:xlink="http://www.w3.org/1999/xlink" xmlns:svgjs="http://svgjs.com/svgjs" fill="#ccc"><svg xmlns="http://www.w3.org/2000/svg" width="16" height="16" viewBox="1.999 1.999 15.001 15.001"><path paint-order="stroke fill markers" fill-rule="evenodd" d="M3.925 1.999h11.15c1.059 0 1.925.784 1.925 1.925v11.15C17 16.217 16.134 17 15.075 17H3.925c-1.06 0-1.926-.784-1.926-1.925V3.925c0-1.142.866-1.926 1.926-1.926zm9.002 1.666a.677.677 0 0 0-.675.676v1.617c0 .371.303.675.675.675h1.695a.677.677 0 0 0 .676-.675V4.34a.677.677 0 0 0-.676-.676h-1.695zm2.378 4.678h-1.32c.124.407.192.84.192 1.287 0 2.495-2.088 4.518-4.663 4.518S4.851 12.125 4.851 9.63c0-.448.068-.88.193-1.287H3.666v6.336c0 .328.269.597.597.597h10.446a.598.598 0 0 0 .596-.597V8.343zM9.514 6.548C7.85 6.548 6.5 7.855 6.5 9.467s1.35 2.92 3.013 2.92c1.664 0 3.013-1.308 3.013-2.92 0-1.612-1.349-2.92-3.013-2.92z"/></svg></svg>