<svg width="17" height="14" xmlns="http://www.w3.org/2000/svg" xmlns:xlink="http://www.w3.org/1999/xlink" xmlns:svgjs="http://svgjs.com/svgjs" viewBox="0 0.094 17 13.812" fill="#ccc"><svg xmlns="http://www.w3.org/2000/svg" width="17" height="14" viewBox="2 2 16 13"><path paint-order="stroke fill markers" fill-rule="evenodd" d="M17.559 2.24a6.602 6.602 0 0 1-2.086.797A3.283 3.283 0 0 0 9.88 6.03 9.319 9.319 0 0 1 3.114 2.6a3.26 3.26 0 0 0-.443 1.65c0 1.139.58 2.144 1.46 2.731a3.28 3.28 0 0 1-1.487-.412v.041a3.286 3.286 0 0 0 2.632 3.22 3.311 3.311 0 0 1-1.482.055 3.288 3.288 0 0 0 3.065 2.28 6.588 6.588 0 0 1-4.076 1.405c-.265 0-.526-.016-.783-.045A9.296 9.296 0 0 0 7.032 15c6.037 0 9.338-5.002 9.338-9.34l-.01-.425c.643-.461 1.2-1.04 1.64-1.697-.589.26-1.22.438-1.885.517A3.302 3.302 0 0 0 17.56 2.24z"/></svg></svg>